<svg width="335" height="307" viewBox="0 0 335 307" fill="none" xmlns="http://www.w3.org/2000/svg">
<path d="M50 153.321C50 218.121 102.7 270.821 167.5 270.821V219.621C131 219.621 101.2 189.921 101.2 153.321C101.2 118.721 127.8 90.2213 161.6 87.3213C164.8 87.0213 167.4 84.1213 167.4 80.9213V42.4213C167.4 38.6213 164.3 35.7213 160.6 36.0213C99.1 39.5213 50 90.8213 50 153.321Z" fill="#0A057B"/>
<path d="M167.6 219.621V270.921C230.1 270.921 281.4 221.821 285 160.221C285.2 156.521 282.3 153.421 278.6 153.421C278.6 153.421 242.4 153.421 240.1 153.421C237.8 153.421 234 155.021 233.7 160.021C231.6 193.321 201.8 219.621 167.6 219.621Z" fill="#3540F4"/>
<path d="M225.5 133.021C246.763 133.021 264 115.784 264 94.5214C264 73.2584 246.763 56.0214 225.5 56.0214C204.237 56.0214 187 73.2584 187 94.5214C187 115.784 204.237 133.021 225.5 133.021Z" fill="#F7B219"/>
</svg>
